<svg height="512" viewBox="0 0 48 58" width="512" xmlns="http://www.w3.org/2000/svg"><g id="Page-1" fill="none" fill-rule="evenodd"><g id="018---Veterinarian" fill-rule="nonzero"><path id="Shape" d="m10.27 42.64c-3.93362052-.7466578-7.52922464-2.7212642-10.27-5.64 10-3 3-15 6-25s12-12 18-12 15 2 18 12-4 22 6 25c-2.7407754 2.9187358-6.3363795 4.8933422-10.27 5.64z" fill="#cb8252"/><path id="Shape" d="m45.44 58-22.44.0000002v-18.0000002h9l9.52 4.39c2.1991764 1.01992 3.8198947 2.9787473 4.41 5.33l1.45 5.79c.151148.5981282.0177987 1.2325375-.3613657 1.719197s-.961704.7710972-1.5786343.770803z" fill="#65ddb9"/><path id="Shape" d="m37 50h-2v-2c0-.5522847-.4477153-1-1-1s-1 .4477153-1 1v2h-2c-.5522847 0-1 .4477153-1 1s.4477153 1 1 1h2v2c0 .5522847.4477153 1 1 1s1-.4477153 1-1v-2h2c.5522847 0 1-.4477153 1-1s-.4477153-1-1-1z" fill="#e64c3c"/><path id="Shape" d="m24 40v18.0000002l-21.44-.0000002c-.61693032.0002942-1.19946985-.2841435-1.57863427-.770803s-.51251375-1.1210688-.36136573-1.719197l1.45-5.79c.59010532-2.3512527 2.21082359-4.31008 4.41-5.33l9.52-4.39z" fill="#26b99a"/><g fill="#3f5c6c"><path id="Shape" d="m16 52.4c0 1.325-.895 1.6-2 1.6s-2-.275-2-1.6c-.099826-1.2116895.7901729-2.2796881 2-2.4 1.2098271.1203119 2.099826 1.1883105 2 2.4z"/><circle id="Oval" cx="12" cy="47" r="1"/><circle id="Oval" cx="10" cy="49" r="1"/><circle id="Oval" cx="16" cy="47" r="1"/><circle id="Oval" cx="18" cy="49" r="1"/></g><path id="Shape" d="m29.03 33.67v.01c.12 1.43.65 4.77 2.97 6.32-4.5833879 3.9998546-11.4166121 3.9998546-16 0 2.32-1.55 2.85-4.89 2.97-6.32v-.01z" fill="#f9c795"/><path id="Shape" d="m35.99 16.67c1.18-.23 3.01-.05 3.01 3.33 0 4.54-2.48 4.96-4.43 4.99h-21.14c-1.95-.03-4.43-.45-4.43-4.99 0-3.38 1.83-3.56 3.01-3.33z" fill="#f9c795"/><path id="Shape" d="m36 16c-6-1-9-8-9-8s-3 8-15 8c0 .21 0 .44.01.67.1323488 2.8208555.6092227 5.614934 1.42 8.32 1.68 5.56 4.96 11.01 10.57 11.01 9 0 12-14 12-20z" fill="#fdd7ad"/></g></g></svg>