<svg height="512" viewBox="0 0 58 49" width="512" xmlns="http://www.w3.org/2000/svg"><g id="Page-1" fill="none" fill-rule="evenodd"><g id="016---Mobile-Vet" fill-rule="nonzero"><path id="Shape" d="m56 25.35v14.65h-19v-32h6l7.79 13c.1469349.6348514.5950898 1.1576989 1.2 1.4l2.75 1.1c.7580601.3019004 1.2567076 1.0340416 1.26 1.85z" fill="#e64c3c"/><path id="Shape" d="m39 38.73v-37.73c0-.55228475-.4477153-1-1-1h-36c-.55228475 0-1 .44771525-1 1v38z" fill="#f0c419"/><path id="Shape" d="m56 27v2h-5c-.5522847 0-1-.4477153-1-1v-1c0-.5522847.4477153-1 1-1s1 .4477153 1 1z" fill="#f0c419"/><path id="Shape" d="m5 42h-3c-.53059053.0028231-1.0395388-.2101411-1.41-.59-.3798589-.3704612-.59282307-.8794095-.59-1.41.0032948-1.1032019.89679813-1.9967052 2-2h54c1.1011688.0081672 1.9918328.8988312 2 2-.0032948 1.1032019-.8967981 1.9967052-2 2z" fill="#95a5a5"/><circle id="Oval" cx="11" cy="42" fill="#547580" r="6"/><circle id="Oval" cx="46" cy="42" fill="#547580" r="6"/><circle id="Oval" cx="11" cy="42" fill="#3f5c6c" r="2"/><circle id="Oval" cx="46" cy="42" fill="#3f5c6c" r="2"/><path id="Shape" d="m54 49h-51c-.55228475 0-1-.4477153-1-1s.44771525-1 1-1h51c.5522847 0 1 .4477153 1 1s-.4477153 1-1 1z" fill="#35495e"/><path id="Shape" d="m50.79 21h-5.79c-1.1032019-.0032948-1.9967052-.8967981-2-2v-11.00000535l3.38.00000535c.9444377-.00217037 1.76167.65661896 1.96 1.58l2.44 11.38c0 .01.01.03.01.04z" fill="#9fc9d3"/><circle id="Oval" cx="20" cy="19" fill="#f29c1f" r="15"/><g fill="#ecf0f1"><path id="Shape" d="m20 19c4 0 5 4 5 6s-3 3-5 3-5-1-5-3 1-6 5-6z"/><ellipse id="Oval" cx="15.444" cy="13.961" rx="2.501" ry="3.001" transform="matrix(.944 -.331 .331 .944 -3.75 5.897)"/><circle id="Oval" cx="11" cy="20" r="2"/><ellipse id="Oval" cx="24.56" cy="13.95" rx="3" ry="2.5" transform="matrix(.331 -.944 .944 .331 3.264 32.504)"/><circle id="Oval" cx="29" cy="20" r="2"/></g></g></g></svg>